<svg xmlns="http://www.w3.org/2000/svg" xmlns:xlink="http://www.w3.org/1999/xlink" style="isolation:isolate" viewBox="0 0 20 20" version="1.1" shape-rendering="crispEdges"><path d="M8 15v1H4v1H3v3h14v-3h-1v-1h-4v-1h3v-1h1v-1h1v-3h1V7h-1V4h-1V3h-1V2H5v1H4v1H3v3H2v3h1v3h1v1h1v1h3z" fill="#EAC393"/><path d="M5 15v-1H4v-1H3v-3H2V7h1V4h1V3h1V2h10v1h1v1h1v3h1v3h-1v3h-1v1h-1v1H5z" fill="#FFF" fill-opacity=".1"/><path d="M5 7h3v3H5V7zm7 0h3v3h-3V7z" fill="#FFF"/><path d="M5 8h2v1H5V8zm7 0h2v1h-2V8z" fill="#697b94"/><path d="M5 8h1v1H5V8zm7 0h1v1h-1V8z" fill="#FFF" fill-opacity=".7"/><path d="M8 4v1H7v1H5V5h2V4h1zm4 0h1v1h2v1h-2V5h-1V4z" fill-rule="evenodd" fill="#8c7058"/><path d="M3 13h1v1h1v1h10v-1h1v-1h1v-3h-1v1h-1v1H5v-1H4v-1H3v3z" id="Path" fill="#a7856a" fill-opacity="0.75"/><path d="M9 13v1h1v-1H9z" fill="#ffd3be"/><path d="M3 20v-3h1v-1h3v-1h1v1h1v1h2v-1h1v-1h1v1h3v1h1v3H3z" fill="#6497b1"/><path d="M6 16H4v1H3v3h6v-2H8v-1H6v-1zm2 0h1-1zm3 0h1-1zm2 0h1v1h-2v1h-1v2h6v-3h-1v-1h-3z" fill-rule="evenodd" fill="#FFF" fill-opacity=".2"/><path d="M2 7h1V5h2V4h1V3h1v1h2V3h4V2h1v1h1v1h1v1h1v2h1V6h1V4h-1V3h-1V2h-1V1h-1V0h-1v1h-2V0h-1v1H9V0H8v1H7V0H5v1H4v1H2v5z" fill="#a7856a"/></svg>